<svg xmlns="http://www.w3.org/2000/svg" width="79.834" height="79.834" viewBox="0 0 79.834 79.834">
  <path id="iconfinder_Circled_Facebook_svg_5279111" d="M39.765,79.834h0Zm.282,0h0Zm-.4,0h0Zm.532,0h0Zm-.65,0h0Zm.779,0h0Zm.129,0h0Zm-1.057,0h0Zm1.186,0h0Zm-1.31,0h0Zm1.439,0h0Zm-1.557,0h0Zm-.146,0h0Zm1.831,0h0Zm-1.96,0h0Zm2.088,0h0Zm.128,0h0Zm-2.334,0h0Zm-.112,0h0Zm2.574,0h0Zm.128,0h-.017l.054,0Zm-2.865,0,.054,0h-.054Zm-.117,0,.056,0H38.35Zm3.109,0h-.031l.056,0ZM38.235,79.8l.055,0-.043,0h-.012Zm3.352,0-.043,0,.055,0Zm-3.512-.008.059,0h-.015Zm3.64,0H41.7l.059,0-.045,0Zm-3.755-.007.061,0h-.029Zm3.883,0h-.029l.061,0Zm-4-.007.062,0-.044,0Zm4.124,0-.044,0,.062,0Zm.128-.007-.056,0,.05,0,.059,0-.053,0Zm-4.354,0,.05,0-.056,0-.053,0,.059,0Zm4.481-.007H42.2l.063,0Zm-4.653,0,.063,0H37.61Zm-.113-.007.063,0-.039,0-.024,0Zm4.893,0-.039,0,.063,0-.024,0Zm-5-.008.057,0-.053,0-.053,0,.049,0Zm5.128,0-.053,0,.057,0,.049,0-.053,0Zm.127-.008h-.019l.06,0-.041,0Zm-5.419,0,.06,0h-.019Zm-.112-.008.059,0-.032,0-.027,0Zm5.659,0-.032,0,.059,0Zm-5.771-.01.054,0-.042,0Zm5.9,0-.042,0,.054,0Zm-6.048-.012.048,0h-.012Zm6.175,0h-.012l.048,0Zm.126-.01-.023,0,.048,0Zm-6.417,0,.048,0-.023,0Zm-.113-.009.041,0-.029,0Zm6.657,0-.029,0,.041,0Zm-6.782-.012h0Zm6.908,0h0Zm.126-.011h-.011l.028,0-.017,0Zm-7.167,0,.028,0h-.011Zm-.117-.011.021,0h-.021Zm7.41,0h-.013l.021,0Zm-9.938-.316a39.917,39.917,0,1,1,12.474,0V51.456h9.3l1.77-11.539H46.154V32.429c0-3.157,1.546-6.234,6.505-6.234h5.033V16.372a61.383,61.383,0,0,0-8.935-.78c-9.118,0-15.077,5.526-15.077,15.53v8.794H23.545V51.456H33.68Z" transform="translate(0 0)" fill="#fff" fill-rule="evenodd"/>
</svg>
