<svg xmlns="http://www.w3.org/2000/svg" width="82.667" height="82.667" viewBox="0 0 82.667 82.667">
  <path id="iconfinder_Circled_Instagram_svg_5279112" d="M41.333,0A41.333,41.333,0,1,1,0,41.333,41.353,41.353,0,0,1,41.333,0Zm0,15.5c-7.016,0-7.9.03-10.651.155a18.964,18.964,0,0,0-6.271,1.2,13.21,13.21,0,0,0-7.555,7.555,18.966,18.966,0,0,0-1.2,6.271c-.126,2.755-.155,3.635-.155,10.651s.03,7.9.155,10.651a18.966,18.966,0,0,0,1.2,6.271,13.21,13.21,0,0,0,7.555,7.555,18.968,18.968,0,0,0,6.271,1.2c2.755.126,3.635.155,10.651.155s7.9-.03,10.651-.155a18.966,18.966,0,0,0,6.271-1.2,13.21,13.21,0,0,0,7.555-7.555,18.966,18.966,0,0,0,1.2-6.271c.126-2.755.155-3.635.155-10.651s-.03-7.9-.155-10.651a18.966,18.966,0,0,0-1.2-6.271,13.21,13.21,0,0,0-7.555-7.555,18.962,18.962,0,0,0-6.271-1.2C49.229,15.53,48.349,15.5,41.333,15.5Zm0,4.655c6.9,0,7.715.026,10.439.151a14.3,14.3,0,0,1,4.8.889,8.556,8.556,0,0,1,4.9,4.9,14.29,14.29,0,0,1,.889,4.8c.124,2.724.151,3.541.151,10.439s-.026,7.715-.151,10.439a14.29,14.29,0,0,1-.889,4.8,8.556,8.556,0,0,1-4.9,4.9,14.291,14.291,0,0,1-4.8.889c-2.724.124-3.541.151-10.439.151s-7.715-.026-10.439-.151a14.29,14.29,0,0,1-4.8-.889,8.554,8.554,0,0,1-4.9-4.9,14.294,14.294,0,0,1-.89-4.8c-.124-2.724-.15-3.541-.15-10.439s.026-7.715.15-10.439a14.293,14.293,0,0,1,.89-4.8,8.554,8.554,0,0,1,4.9-4.9,14.3,14.3,0,0,1,4.8-.889c2.724-.124,3.541-.151,10.439-.151Zm0,7.913A13.266,13.266,0,1,0,54.6,41.333,13.266,13.266,0,0,0,41.333,28.068Zm0,21.877a8.611,8.611,0,1,1,8.611-8.611A8.611,8.611,0,0,1,41.333,49.944Zm16.89-22.4a3.1,3.1,0,1,1-3.1-3.1A3.1,3.1,0,0,1,58.223,27.544Z" fill="#fff" fill-rule="evenodd"/>
</svg>
